<?xml version="1.0" encoding="utf-8"?>
<!-- Generator: Adobe Illustrator 21.0.0, SVG Export Plug-In . SVG Version: 6.00 Build 0)  -->
<svg version="1.1" xmlns="http://www.w3.org/2000/svg" xmlns:xlink="http://www.w3.org/1999/xlink" x="0px" y="0px"
	 viewBox="0 0 312 378" style="enable-background:new 0 0 312 378;" xml:space="preserve">
<style type="text/css">
	.st0{display:none;}
	.st1{display:inline;}
	.st2{fill:#FFFFFF;}
	.st3{fill:none;stroke:#FFFFFF;stroke-miterlimit:10;}
</style>
<g id="Layer_1" class="st0">
	<g class="st1">
		<rect x="-135.5" y="-104.5" width="1365" height="772"/>
		<path class="st2" d="M1229-104v771H-135v-771H1229 M1230-105H-136v773h1366V-105L1230-105z"/>
	</g>
</g>
<g id="Layer_2">
</g>
<g id="Layer_3">
	<g>
		<path class="st3" d="M91.5,29.3C65.3,40.2,58.4,71.4,57,78.4c-8.7,45.7,30.3,66.5,21.8,106.2c-8,37.4-48.4,45.9-44.8,59.4
			c8.5,31,229.7,5.8,230.7-24.2c0.7-22.6-123.9-28.3-132.9-81.8c-5.8-34.1,40.4-58.4,28.5-86.6C151.7,30.9,117,18.7,91.5,29.3z"/>
		<path class="st3" d="M85.7,32.4C60.1,44.7,54.8,76.2,53.9,83.3c-6.3,46.1,33.7,64.8,27.3,104.9c-6,37.8-46,48.4-41.6,61.6
			c10.1,30.6,229.7-6.2,229.1-36.2c-0.5-22.6-125.2-21.8-137-74.7c-7.5-33.8,37.3-60.4,23.9-88C145.9,30.9,110.6,20.5,85.7,32.4z"/>
		<path class="st3" d="M80.1,35.9C55.2,49.5,51.5,81.3,50.9,88.4c-3.9,46.4,37,62.9,32.8,103.3c-4.1,38.1-43.4,50.7-38.3,63.7
			c11.7,30,229.1-18.2,226.9-48.2c-1.6-22.5-126.1-15.2-140.7-67.5c-9.3-33.3,34.1-62.3,19.3-89.1C140.1,31.2,104.3,22.7,80.1,35.9z
			"/>
		<path class="st3" d="M74.6,39.7C50.5,54.6,48.5,86.5,48.3,93.6c-1.5,46.5,40.3,60.9,38.1,101.4c-2.1,38.2-40.7,52.9-34.9,65.6
			c13.2,29.3,227.8-30.2,224-60c-2.8-22.4-126.8-8.6-144.1-60c-11-32.8,30.8-64,14.6-90C134.3,31.9,98.1,25.2,74.6,39.7z"/>
		<path class="st3" d="M69.4,43.7C46.1,59.9,45.7,91.8,45.9,99c1,46.5,43.4,58.7,43.4,99.3c-0.1,38.3-37.8,55-31.5,67.4
			c14.7,28.6,225.9-42.1,220.6-71.6c-4-22.2-127-1.9-147-52.4c-12.7-32.2,27.4-65.5,9.8-90.7C128.6,32.8,92.1,28.1,69.4,43.7z"/>
		<path class="st3" d="M64.4,48c-22.5,17.3-21.1,49.3-20.6,56.4c3.4,46.4,46.4,56.4,48.5,96.9c2,38.2-34.9,56.9-27.9,68.9
			c16.2,27.8,223.4-53.9,216.5-83.1c-5.1-22-127,4.7-149.5-44.6c-14.4-31.5,23.9-66.9,5.1-91C122.9,34,86.2,31.2,64.4,48z"/>
		<path class="st3" d="M59.6,52.6C38.1,71.1,41.1,102.9,42,110c5.8,46.2,49.3,53.9,53.5,94.2c4,38.1-31.9,58.7-24.2,70.3
			c17.6,26.9,220.3-65.5,211.9-94.3c-6.3-21.7-126.5,11.3-151.7-36.7c-16-30.7,20.4-68,0.3-91.2C117.3,35.6,80.5,34.7,59.6,52.6z"/>
		<path class="st3" d="M55.1,57.4C34.5,77,39.2,108.6,40.5,115.7c8.2,45.8,52.1,51.2,58.4,91.3c5.9,37.8-28.8,60.2-20.5,71.5
			c19,25.9,216.5-76.9,206.7-105.3c-7.4-21.3-125.8,18-153.4-28.8c-17.6-29.8,16.8-69-4.5-91.1C111.8,37.4,75,38.4,55.1,57.4z"/>
		<path class="st3" d="M50.8,62.5c-19.5,20.6-13.1,51.9-11.5,58.9c10.6,45.3,54.7,48.4,63.1,88.1c7.9,37.5-25.6,61.7-16.8,72.5
			c20.4,24.9,212.2-88.1,200.9-115.9c-8.5-20.9-124.7,24.5-154.7-20.7c-19.1-28.8,13.2-69.8-9.2-90.7
			C106.4,39.5,69.7,42.4,50.8,62.5z"/>
		<path class="st3" d="M46.8,67.7c-18.4,21.6-10.4,52.6-8.4,59.4c13,44.7,57.1,45.5,67.6,84.7c9.9,37-22.3,62.9-12.9,73.2
			c21.6,23.8,207.3-99.1,194.5-126.3c-9.6-20.4-123.2,31-155.6-12.6c-20.6-27.8,9.5-70.4-14-90.1C101.1,41.9,64.6,46.7,46.8,67.7z"
			/>
		<path class="st3" d="M43,73.2c-17.2,22.5-7.6,53-5.3,59.8c15.3,44,59.4,42.4,71.9,81c11.8,36.4-19,64-9.1,73.8
			c22.8,22.6,201.8-109.8,187.7-136.3c-10.7-19.9-121.4,37.4-156-4.4c-22.1-26.7,5.8-70.8-18.7-89.3C95.9,44.5,59.7,51.3,43,73.2z"
			/>
		<path class="st3" d="M39.6,78.9c-16,23.4-4.9,53.4-2.2,60C55,181.9,99,178.1,113.5,216c13.7,35.8-15.6,64.9-5.2,74.2
			c24,21.4,195.8-120.3,180.3-145.9c-11.7-19.3-119.3,43.7-156,3.8c-23.4-25.5,2.1-71-23.3-88.2C90.9,47.5,55.1,56.1,39.6,78.9z"/>
		<path class="st3" d="M36.4,84.7c-14.8,24.2-2.1,53.5,1,60c19.8,42.1,63.6,36,80,73.1c15.5,35-12.2,65.6-1.3,74.4
			c25.1,20.1,189.2-130.3,172.4-155.2c-12.7-18.7-116.8,49.9-155.6,11.9c-24.7-24.2-1.6-71-27.9-86.8C86,50.6,50.8,61.2,36.4,84.7z"
			/>
		<path class="st3" d="M33.6,90.7c-13.5,25,0.7,53.6,4.1,59.9c22,41,65.4,32.6,83.7,68.8c17.3,34.1-8.7,66.2,2.6,74.3
			c26.1,18.8,182.2-140.1,164-164c-13.6-18-114.1,55.9-154.8,20c-26-22.9-5.3-70.8-32.4-85.2C81.3,54.1,46.7,66.4,33.6,90.7z"/>
		<path class="st3" d="M31.1,96.8c-12.1,25.6,3.5,53.5,7.3,59.6c24.1,39.8,67,29.1,87.2,64.3c19.1,33.2-5.3,66.6,6.4,74.1
			c27.1,17.4,174.6-149.4,155.2-172.3c-14.6-17.3-111,61.8-153.5,28.1c-27.1-21.5-9-70.5-36.8-83.4C76.9,57.8,42.9,71.9,31.1,96.8z"
			/>
		<path class="st3" d="M28.9,103c-10.8,26.2,6.3,53.2,10.4,59.1c26.2,38.5,68.4,25.6,90.5,59.7c20.8,32.1-1.8,66.7,10.3,73.6
			c27.9,16,166.5-158.3,146-180.2c-15.5-16.5-107.6,67.6-151.8,36.1C106,131.3,121.5,81.5,93.1,70C72.6,61.7,39.4,77.6,28.9,103z"/>
		<path class="st3" d="M27,109.4c-9.4,26.8,9.1,52.8,13.4,58.5c28.1,37.1,69.6,22,93.5,54.8c22.5,31,1.7,66.7,14.2,73
			c28.7,14.5,158-166.8,136.4-187.6c-16.3-15.6-103.9,73.1-149.7,44C105.5,133.6,118.4,83,89.4,73C68.5,65.8,36.2,83.4,27,109.4z"/>
		<path class="st3" d="M25.5,115.8c-8,27.2,11.9,52.3,16.5,57.7c30,35.5,70.7,18.3,96.2,49.9c24.1,29.8,5.2,66.6,18,72.2
			c29.4,13,149.1-174.9,126.4-194.5c-17.1-14.8-100,78.4-147.2,51.8c-30.1-17-20-68.2-49.4-76.7C64.6,70.1,33.3,89.4,25.5,115.8z"/>
		<path class="st3" d="M24.3,122.3c-6.6,27.6,14.6,51.6,19.5,56.8c31.9,33.9,71.6,14.6,98.7,44.8c25.6,28.5,8.7,66.2,21.7,71.1
			c30.1,11.4,139.7-182.4,116-200.8c-17.8-13.9-95.7,83.6-144.3,59.4c-31-15.4-23.5-67-53.3-74C61,74.6,30.7,95.5,24.3,122.3z"/>
		<path class="st3" d="M23.5,128.9c-5.1,27.9,17.3,50.7,22.4,55.7c33.6,32.2,72.2,10.8,100.9,39.6c27,27.1,12.1,65.6,25.4,69.9
			c30.6,9.8,130-189.5,105.3-206.6c-18.5-12.9-91.2,88.5-141,66.9c-31.8-13.8-27-65.7-57.1-71.1C57.6,79.4,28.4,101.8,23.5,128.9z"
			/>
		<path class="st3" d="M23,135.5c-3.6,28.1,19.9,49.8,25.3,54.4c35.2,30.4,72.7,7,102.8,34.2c28.4,25.7,15.6,64.9,29,68.5
			c31.1,8.2,119.9-196,94.4-211.9c-19.2-11.9-86.5,93.1-137.3,74.2c-32.4-12.1-30.4-64.2-60.8-68C54.4,84.2,26.5,108.2,23,135.5z"/>
		<path class="st3" d="M22.8,142.1c-2.2,28.3,22.5,48.6,28.1,53c36.8,28.5,73,3.2,104.5,28.8c29.7,24.1,18.9,64,32.6,66.9
			c31.5,6.5,109.5-202,83.2-216.5c-19.8-10.9-81.5,97.5-133.2,81.3c-33-10.4-33.7-62.5-64.3-64.7C51.6,89.3,24.9,114.7,22.8,142.1z"
			/>
		<path class="st3" d="M23,148.7c-0.7,28.4,25,47.4,30.9,51.5c38.2,26.6,73-0.6,105.8,23.3c30.9,22.5,22.3,62.9,36,65.1
			c31.8,4.9,98.7-207.5,71.7-220.6c-20.3-9.8-76.2,101.6-128.8,88.1c-33.5-8.6-36.9-60.7-67.6-61.3C48.9,94.5,23.7,121.2,23,148.7z"
			/>
		<path class="st3" d="M23.6,155.3c0.8,28.4,27.4,46,33.5,49.8c39.6,24.5,72.9-4.4,106.9,17.7c32.1,20.9,25.5,61.7,39.4,63.1
			c32,3.2,87.7-212.4,60.1-224c-20.8-8.8-70.8,105.5-124,94.7c-33.9-6.8-40-58.7-70.7-57.6C46.6,99.8,22.8,127.8,23.6,155.3z"/>
		<path class="st3" d="M24.4,161.9c2.3,28.3,29.8,44.5,36.1,48c40.8,22.4,72.6-8.2,107.7,12.1c33.1,19.2,28.7,60.3,42.6,60.9
			C243,284.5,287.3,66.2,259.1,56c-21.2-7.7-65.2,109-118.9,101.1c-34.2-5.1-43.1-56.5-73.6-53.9C44.6,105.2,22.2,134.4,24.4,161.9z
			"/>
		<path class="st3" d="M25.7,168.4c3.8,28.1,32.1,42.9,38.5,46c41.9,20.3,72-12,108.2,6.4c34.1,17.4,31.8,58.7,45.8,58.6
			c32.2-0.1,65.1-220.4,36.3-229.1c-21.6-6.5-59.4,112.3-113.4,107.2c-34.5-3.3-46-54.2-76.3-49.9C42.8,110.7,22,141.1,25.7,168.4z"
			/>
		<path class="st3" d="M27.2,174.8c5.2,27.9,34.3,41.2,40.9,43.9c42.9,18,71.3-15.8,108.4,0.8c34.9,15.6,34.9,56.9,48.8,56.1
			c32.1-1.8,53.4-223.5,24.3-230.7c-21.9-5.4-53.4,115.3-107.7,113c-34.6-1.5-48.7-51.7-78.8-45.9C41.3,116.4,22.1,147.8,27.2,174.8
			z"/>
		<path class="st3" d="M29.1,181.2c6.7,27.6,36.4,39.3,43.1,41.7c43.8,15.8,70.4-19.5,108.3-4.9c35.7,13.8,37.8,55,51.6,53.5
			c32-3.5,41.7-226,12.2-231.6c-22.2-4.2-47.3,117.9-101.6,118.5c-34.6,0.4-51.4-49.1-81.1-41.7C40.1,122,22.6,154.4,29.1,181.2z"/>
		<path class="st3" d="M31.4,187.4c8.1,27.2,38.4,37.4,45.3,39.4c44.6,13.4,69.3-23.2,107.9-10.6c36.4,11.9,40.6,53,54.4,50.7
			c31.8-5.2,29.8-227.9,0-231.9c-22.4-3.1-41.1,120.2-95.3,123.6c-34.5,2.2-53.9-46.3-83.2-37.4C39.2,127.8,23.5,161,31.4,187.4z"/>
		<path class="st3" d="M33.9,193.5c9.5,26.7,40.3,35.3,47.3,37c45.2,11.1,68-26.7,107.2-16.2c37,10,43.3,50.8,56.9,47.8
			c31.4-6.8,17.8-229.1-12.1-231.6c-22.5-1.9-34.8,122.2-88.7,128.4c-34.4,4-56.2-43.4-85-33C38.7,133.6,24.7,167.6,33.9,193.5z"/>
		<path class="st3" d="M36.8,199.5c10.9,26.2,42.1,33.1,49.1,34.5c45.7,8.7,66.5-30.3,106.2-21.8c37.4,8,45.9,48.4,59.4,44.8
			c31-8.5,5.8-229.7-24.2-230.7c-22.6-0.7-28.3,123.9-81.8,132.9c-34.1,5.8-58.4-40.4-86.6-28.5C38.4,139.4,26.2,174.1,36.8,199.5z"
			/>
	</g>
	<g>
		<path class="st2" d="M86.7,359H79v-39.4h8.3v11.5l-0.6,3.8h0.6c0.6-1.1,1.6-2,2.9-2.7c1.3-0.8,2.9-1.1,4.9-1.1
			c1.7,0,3.4,0.3,4.9,1c1.6,0.7,3,1.7,4.2,2.9c1.2,1.3,2.1,2.8,2.8,4.5c0.7,1.8,1,3.7,1,5.8s-0.3,4.1-1,5.8
			c-0.7,1.8-1.6,3.3-2.8,4.5c-1.2,1.3-2.6,2.2-4.2,2.9c-1.6,0.7-3.2,1-4.9,1c-2,0-3.6-0.4-4.9-1.1c-1.3-0.8-2.3-1.7-2.9-2.7h-0.6
			V359z M93.3,352.2c0.9,0,1.7-0.2,2.5-0.5c0.8-0.3,1.5-0.8,2.1-1.3s1.1-1.3,1.4-2.1c0.3-0.8,0.5-1.8,0.5-2.8s-0.2-1.9-0.5-2.8
			c-0.3-0.8-0.8-1.5-1.4-2.1c-0.6-0.6-1.3-1-2.1-1.3c-0.8-0.3-1.6-0.5-2.5-0.5c-0.9,0-1.7,0.2-2.5,0.5c-0.8,0.3-1.5,0.8-2.1,1.3
			c-0.6,0.6-1.1,1.3-1.4,2.1c-0.3,0.8-0.5,1.7-0.5,2.8s0.2,2,0.5,2.8c0.3,0.8,0.8,1.5,1.4,2.1s1.3,1,2.1,1.3
			C91.6,352,92.4,352.2,93.3,352.2z"/>
		<path class="st2" d="M112.4,359v-39.4h8.3V359H112.4z"/>
		<path class="st2" d="M139.5,331.2c2.1,0,4,0.4,5.8,1.1c1.8,0.7,3.3,1.7,4.6,3c1.3,1.3,2.3,2.8,3,4.5c0.7,1.8,1.1,3.7,1.1,5.8
			c0,2.1-0.4,4-1.1,5.8c-0.7,1.8-1.7,3.3-3,4.5c-1.3,1.3-2.8,2.3-4.6,3c-1.8,0.7-3.7,1.1-5.8,1.1s-4-0.4-5.8-1.1
			c-1.8-0.7-3.3-1.7-4.6-3c-1.3-1.3-2.3-2.8-3-4.5c-0.7-1.8-1.1-3.7-1.1-5.8c0-2.1,0.4-4,1.1-5.8c0.7-1.8,1.7-3.3,3-4.5
			c1.3-1.3,2.8-2.3,4.6-3C135.5,331.5,137.5,331.2,139.5,331.2z M139.5,352.2c0.8,0,1.6-0.2,2.4-0.5c0.8-0.3,1.4-0.8,2-1.3
			c0.6-0.6,1-1.3,1.4-2.1s0.5-1.8,0.5-2.8s-0.2-1.9-0.5-2.8s-0.8-1.5-1.4-2.1c-0.6-0.6-1.3-1-2-1.3c-0.8-0.3-1.5-0.5-2.4-0.5
			c-0.8,0-1.6,0.2-2.4,0.5c-0.8,0.3-1.4,0.8-2,1.3c-0.6,0.6-1,1.3-1.4,2.1s-0.5,1.7-0.5,2.8s0.2,2,0.5,2.8s0.8,1.5,1.4,2.1
			c0.6,0.6,1.3,1,2,1.3C137.9,352,138.7,352.2,139.5,352.2z"/>
		<path class="st2" d="M171.7,331.2c2.1,0,4,0.4,5.8,1.1c1.8,0.7,3.3,1.7,4.6,3c1.3,1.3,2.3,2.8,3,4.5c0.7,1.8,1.1,3.7,1.1,5.8
			c0,2.1-0.4,4-1.1,5.8c-0.7,1.8-1.7,3.3-3,4.5c-1.3,1.3-2.8,2.3-4.6,3c-1.8,0.7-3.7,1.1-5.8,1.1s-4-0.4-5.8-1.1
			c-1.8-0.7-3.3-1.7-4.6-3c-1.3-1.3-2.3-2.8-3-4.5c-0.7-1.8-1.1-3.7-1.1-5.8c0-2.1,0.4-4,1.1-5.8c0.7-1.8,1.7-3.3,3-4.5
			c1.3-1.3,2.8-2.3,4.6-3C167.6,331.5,169.6,331.2,171.7,331.2z M171.7,352.2c0.8,0,1.6-0.2,2.4-0.5c0.8-0.3,1.4-0.8,2-1.3
			c0.6-0.6,1-1.3,1.4-2.1s0.5-1.8,0.5-2.8s-0.2-1.9-0.5-2.8s-0.8-1.5-1.4-2.1c-0.6-0.6-1.3-1-2-1.3c-0.8-0.3-1.5-0.5-2.4-0.5
			c-0.8,0-1.6,0.2-2.4,0.5c-0.8,0.3-1.4,0.8-2,1.3c-0.6,0.6-1,1.3-1.4,2.1s-0.5,1.7-0.5,2.8s0.2,2,0.5,2.8s0.8,1.5,1.4,2.1
			c0.6,0.6,1.3,1,2,1.3C170,352,170.8,352.2,171.7,352.2z"/>
		<path class="st2" d="M190.3,332h7.7v3.4h0.6c0.9-1.4,2-2.4,3.4-3.2c1.4-0.8,3-1.1,4.9-1.1c2.1,0,3.8,0.5,5.1,1.5
			c1.4,1,2.3,2.1,2.9,3.4c0.8-1.3,2-2.4,3.5-3.4c1.5-1,3.4-1.5,5.7-1.5c1.6,0,3,0.3,4.2,0.8s2.2,1.3,3,2.2c0.8,1,1.4,2.1,1.8,3.4
			c0.4,1.3,0.6,2.8,0.6,4.3v17h-8.3v-15.5c0-1.4-0.3-2.5-1-3.4c-0.6-0.9-1.6-1.3-2.8-1.3c-1.8,0-3.2,0.7-4.1,2.2
			c-0.9,1.4-1.4,3.4-1.4,5.8V359h-8.3v-15.5c0-1.4-0.3-2.5-1-3.4c-0.7-0.9-1.7-1.3-3.2-1.3c-1.7,0-3,0.7-3.8,2.2
			c-0.8,1.4-1.3,3.4-1.3,5.8V359h-8.3V332z"/>
	</g>
	<g>
	</g>
	<g>
	</g>
	<g>
	</g>
	<g>
	</g>
	<g>
	</g>
	<g>
	</g>
	<g>
	</g>
	<g>
	</g>
	<g>
	</g>
	<g>
	</g>
	<g>
	</g>
	<g>
	</g>
	<g>
	</g>
	<g>
	</g>
	<g>
	</g>
</g>
</svg>
